<?xml version="1.0" encoding="utf-8"?>
<!-- Generator: Adobe Illustrator 25.4.1, SVG Export Plug-In . SVG Version: 6.00 Build 0)  -->
<svg version="1.1" xmlns="http://www.w3.org/2000/svg" xmlns:xlink="http://www.w3.org/1999/xlink" x="0px" y="0px"
	 viewBox="0 0 1920 1920" style="enable-background:new 0 0 1920 1920;" xml:space="preserve">
<style type="text/css">
	.st0{display:none;}
	.st1{display:inline;fill:#E2A783;}
	.st2{display:inline;fill:#E3EDE7;}
	.st3{display:inline;}
	.st4{fill:#2FA78B;}
	.st5{display:inline;fill:#2F8B8B;}
	.st6{fill:#834F97;}
	.st7{display:none;fill:#FFC68A;}
	.st8{display:none;fill:#FA8963;}
	.st9{display:none;fill:#E3EDE7;}
	.st10{display:inline;fill:#2FA78B;}
	.st11{display:none;fill:#2F8B8B;}
</style>
<g id="Layer_1" class="st0">
	<ellipse class="st1" cx="-737.5" cy="1016.5" rx="497.5" ry="508.5"/>
	<path class="st2" d="M-1899,663h826c0,0,0-45-54-40c0,0-29-99-121-63c0,0-11-89-116-68c0,0-40-99-127-55c-17,16-41.78,29.8-41,103
		c0,0-70-52-121,32c0,0-47-23-76,26.98C-1729,598.98-1848,582-1899,663z"/>
	<path class="st2" d="M-850.5,693h826c0,0,0-45-54-40c0,0-29-99-121-63c0,0-11-89-116-68c0,0-40-99-127-55c-17,16-41.78,29.8-41,103
		c0,0-70-52-121,32c0,0-47-23-76,26.98C-680.5,628.98-799.5,612-850.5,693z"/>
	<g class="st3">
		<path class="st4" d="M-1939.9,1499.67c557.4-0.17,1062.4-0.17,1619.4-0.17c109.11,0,96,5,208,1c21,1,69,3,92-1l1-97
			c-15-36-49-49-99.12-71.27c-203.02-90.23-242-61.16-457.88-114.73l-259-62c-54-16-319.65-143.3-350.95-164.63
			c-116.82-79.61-227.89-168.99-353.78-233.29s-269.28-98.64-399.27-43.08"/>
		<g>
			<path class="st4" d="M-1939.9,1501.17c137.85-0.04,275.7-0.07,413.56-0.1c134.53-0.02,269.07-0.04,403.6-0.05
				c133.95-0.01,267.91-0.02,401.86-0.02c137.61,0,275.22-0.5,412.83,0.02c38.62,0.15,77.18,2.18,115.79,2.49
				c24.11,0.2,48.23-0.44,72.32-1.26c23.45-0.79,46.98,1.56,70.48,0.99c9.82-0.24,19.66-0.72,29.36-2.3c0.64-0.1,1.09-0.84,1.1-1.45
				c0.24-22.99,0.47-45.98,0.71-68.97c0.09-8.79,1.73-19.13,0.29-27.83c-2.18-13.13-16.4-26.84-26.29-34.64
				c-15.87-12.52-34.75-20.86-53.09-29.05c-24.32-10.86-48.7-21.6-73.45-31.44c-38.1-15.15-77.02-28.28-116.92-37.82
				c-73.6-17.6-149.41-24.33-223.47-39.82c-48.38-10.12-96.38-22.4-144.45-33.91c-53.7-12.86-107.4-25.71-161.11-38.57
				c-35.61-8.52-68.71-23.68-102.11-38.55c-63.27-28.16-125.89-57.85-187.92-88.63c-21.78-10.81-43.6-21.64-64.88-33.41
				c-33.23-18.38-63.59-42.67-94.44-64.69c-92.91-66.31-185.74-134.56-288.79-184.58c-94.54-45.88-202.09-76.16-307.59-58.24
				c-26.62,4.52-52.52,12.22-77.39,22.7c-1.75,0.74-0.98,3.64,0.8,2.89c168.19-70.89,348.32,6.62,492.3,96.7
				c74.86,46.84,145.64,99.75,217.81,150.54c18.87,13.28,37.4,27.19,57.66,38.29c16.37,8.97,33.04,17.39,49.73,25.76
				c47.39,23.76,95.24,46.63,143.34,68.92c40.85,18.93,81.82,38.09,123.86,54.27c20.61,7.93,42.14,12.18,63.59,17.31
				c44.2,10.58,88.41,21.16,132.61,31.74c27.05,6.47,54.11,12.88,81.14,19.42c64.76,15.67,129.88,27.42,195.7,37.51
				c54.88,8.41,108.81,19.24,161.47,37.16c38.3,13.03,75.48,28.87,112.46,45.23c29.37,12.99,64.17,26.12,81.45,55.11
				c4.42,7.41,4.97,10.78,4.88,18.83c-0.11,10.22-0.21,20.45-0.32,30.67c-0.12,11.39-0.23,22.78-0.35,34.16
				c-0.04,4.36-0.09,8.71-0.13,13.07c-0.02,1.92,0.87,6.95-0.09,8.64c-1.55,2.73,1.91-1.76-0.78,0.06
				c-2.14,1.45-7.68,0.91-10.29,1.12c-8.62,0.67-17.27,0.86-25.91,0.91c-16.03,0.09-32.07-0.42-48.08-1.13
				c-31.31-1.4-62.99,1.69-94.39,1.15c-67.69-1.18-135.27-2.4-202.99-2.4c-94.37,0-188.74,0-283.11,0
				c-184.67,0-369.34,0.01-554.01,0.03c-185.84,0.02-371.68,0.05-557.52,0.1c-46.95,0.01-93.89,0.03-140.84,0.04
				C-1941.83,1498.17-1941.83,1501.17-1939.9,1501.17L-1939.9,1501.17z"/>
		</g>
	</g>
	<path class="st2" d="M-1580.5,947h826c0,0,0-45-54-40c0,0-29-99-121-63c0,0-11-89-116-68c0,0-40-99-127-55
		c-17,16-41.78,29.8-41,103c0,0-70-52-121,32c0,0-47-23-76,26.98C-1410.5,882.98-1529.5,866-1580.5,947z"/>
	<path class="st5" d="M-1940,1395c198.74-193.2,306.8-194.01,427-207.5c215.53-24.19,318.29,73.24,581,21
		c115.53-22.97,205.59-63.68,328-119c202.51-91.52,279.06-150.58,435-184C-106,892-48,900-20,901c0,52,0,135.27,0,181
		c0,178,0.72,258.94-1,418c-687,0-1240.76,0-1919,0C-1940,1478-1940,1417-1940,1395z"/>
</g>
<g id="Layer_2" class="st0">
	<g class="st3">
		<path class="st6" d="M-1547.79,880.69l19.1-26.78c11.66,12.15,29.76,22.32,52.58,22.32c19.34,0,28.77-8.93,28.77-18.35
			c0-29.26-95.23-9.18-95.23-71.42c0-27.53,23.81-50.34,62.74-50.34c26.29,0,48.11,7.94,64.48,23.06l-19.59,25.79
			c-13.39-12.4-31.25-18.1-48.11-18.1c-15.13,0-23.56,6.7-23.56,16.62c0,26.29,94.98,8.68,94.98,70.43
			c0,30.26-21.58,53.07-66.22,53.07C-1509.6,906.98-1532.42,896.31-1547.79,880.69z"/>
		<path class="st6" d="M-1396.27,843.98c0-33.98,23.81-62.74,63.24-62.74c39.68,0,63.49,28.77,63.49,62.74
			c0,34.22-23.81,62.99-63.49,62.99C-1372.46,906.98-1396.27,878.21-1396.27,843.98z M-1302.27,843.98
			c0-18.6-11.16-34.72-30.75-34.72s-30.5,16.12-30.5,34.72c0,18.85,10.91,34.97,30.5,34.97S-1302.27,862.83-1302.27,843.98z"/>
		<path class="st6" d="M-1246.23,904V784.22h31.5v16.37c8.43-10.66,23.31-19.34,38.19-19.34v30.75c-2.23-0.5-5.21-0.74-8.68-0.74
			c-10.42,0-24.3,5.95-29.51,13.64V904H-1246.23z"/>
		<path class="st6" d="M-1085.03,904v-12.4c-8.18,9.67-22.32,15.38-37.94,15.38c-19.1,0-41.67-12.9-41.67-39.68
			c0-28.02,22.57-38.69,41.67-38.69c15.87,0,30.01,5.21,37.94,14.63v-16.12c0-12.15-10.42-20.09-26.29-20.09
			c-12.9,0-24.8,4.71-34.97,14.14l-11.9-21.08c14.63-12.9,33.48-18.85,52.33-18.85c27.28,0,52.33,10.91,52.33,45.38V904H-1085.03z
			 M-1085.03,875.23v-14.88c-5.21-6.94-15.13-10.42-25.3-10.42c-12.4,0-22.57,6.45-22.57,18.1c0,11.16,10.17,17.61,22.57,17.61
			C-1100.16,885.65-1090.24,882.18-1085.03,875.23z"/>
		<path class="st6" d="M-859.85,904l-50.1-66.22l-12.9,15.38V904h-35.22V738.58h35.22v73.9l58.53-73.9h43.4l-65.72,77.62
			l70.18,87.79H-859.85z"/>
		<path class="st6" d="M-732.63,904v-12.4c-8.18,9.67-22.32,15.38-37.94,15.38c-19.1,0-41.66-12.9-41.66-39.68
			c0-28.02,22.57-38.69,41.66-38.69c15.87,0,30.01,5.21,37.94,14.63v-16.12c0-12.15-10.42-20.09-26.29-20.09
			c-12.9,0-24.8,4.71-34.97,14.14l-11.9-21.08c14.63-12.9,33.48-18.85,52.33-18.85c27.28,0,52.33,10.91,52.33,45.38V904H-732.63z
			 M-732.63,875.23v-14.88c-5.21-6.94-15.13-10.42-25.3-10.42c-12.4,0-22.57,6.45-22.57,18.1c0,11.16,10.17,17.61,22.57,17.61
			C-747.75,885.65-737.83,882.18-732.63,875.23z"/>
		<path class="st6" d="M-589.03,904v-72.42c0-16.62-8.68-22.32-22.07-22.32c-12.4,0-22.07,6.94-27.28,14.14V904h-31.5V784.22h31.5
			v15.62c7.69-9.18,22.32-18.6,41.91-18.6c26.29,0,38.94,14.88,38.94,38.19V904H-589.03z"/>
		<path class="st6" d="M-528.77,934.75l14.14-22.82c9.67,10.66,22.32,14.88,37.45,14.88s32.98-6.7,32.98-30.26v-12.15
			c-9.42,11.9-22.32,18.85-36.95,18.85c-30.01,0-52.83-21.08-52.83-61.01c0-39.18,22.57-61.01,52.83-61.01
			c14.38,0,27.28,6.2,36.95,18.35v-15.38h31.74v111.6c0,45.63-35.22,56.79-64.73,56.79C-497.77,952.61-513.64,947.9-528.77,934.75z
			 M-444.2,861.59V822.9c-5.21-7.94-16.62-13.64-27.03-13.64c-17.86,0-30.26,12.4-30.26,32.98c0,20.58,12.4,32.98,30.26,32.98
			C-460.82,875.23-449.41,869.28-444.2,861.59z"/>
	</g>
</g>
<g id="Layer_3">
	<rect x="1" y="1" class="st7" width="1920" height="1920"/>
	<ellipse class="st8" cx="1159.5" cy="850.5" rx="497.5" ry="508.5"/>
	<path class="st9" d="M872.88,566h-826c0,0,0-45,54-40c0,0,29-99,121-63c0,0,11-89,116-68c0,0,40-99,127-55c17,16,41.78,29.8,41,103
		c0,0,70-52,121,32c0,0,47-23,76,26.98C702.88,501.98,821.88,485,872.88,566z"/>
	<path class="st9" d="M1054.38,685h826c0,0,0-45-54-40c0,0-29-99-121-63c0,0-11-89-116-68c0,0-40-99-127-55
		c-17,16-41.78,29.8-41,103c0,0-70-52-121,32c0,0-47-23-76,26.98C1224.38,620.98,1105.38,604,1054.38,685z"/>
	<g class="st0">
		<path class="st10" d="M1.5,1921.5c557.4-0.17,701,0,1258,0c109.11,0,328,6,450-2c46,3,179,1,212,1v-408.75
			c-15-36-49-49-99.12-71.27c-203.02-90.23-242-61.16-457.88-114.73l-259-62c-54-16-319.65-143.3-350.95-164.63
			c-116.82-79.61-227.89-168.99-353.78-233.29S131.49,767.19,1.5,822.75"/>
		<g class="st3">
			<path class="st4" d="M1.5,1923c144.58-0.04,289.16-0.07,433.74-0.07c114.07,0,228.14,0.01,342.21,0.03
				c137.17,0.02,274.34,0.04,411.51,0.04c129.67,0,259.36,3.06,389.03,1.97c30.5-0.26,61-0.77,91.48-1.94
				c13.3-0.51,26.73-2,40.03-2.03c9.88-0.02,19.84,0.91,29.72,1.12c52.95,1.15,105.94,0.41,158.89,0.01
				c7.79-0.06,15.59-0.13,23.38-0.13c0.81,0,1.5-0.69,1.5-1.5c0-44.01,0-88.02,0-132.03c0-72.37,0-144.74,0-217.11
				c0-18.8,0.49-37.67,0-56.46c-0.25-9.49-7.42-18.38-13.38-25.34c-15.77-18.42-38.87-29.04-60.51-38.84
				c-53.78-24.36-108.37-47.47-165.22-63.7c-41.54-11.86-83.98-19.21-126.63-25.73c-52.05-7.96-103.9-16.54-155.28-28.18
				c-24.88-5.64-49.65-11.82-74.46-17.75c-66.35-15.88-132.7-31.77-199.05-47.65c-50.55-12.1-97.49-35.27-144.61-56.85
				c-70.91-32.49-142.16-65.38-210.72-102.65c-11.29-6.14-21.69-12.98-32.29-20.29c-29.36-20.27-58.37-41.05-87.4-61.8
				c-57.5-41.09-115.15-82.14-175.61-118.82C363.58,838,230.44,778.99,93.63,796.37c-31.88,4.05-62.92,12.46-92.53,24.94
				c-1.75,0.74-0.98,3.64,0.8,2.89c214.18-90.27,436.16,53.23,605.71,172.96c61.08,43.13,119.86,91.13,186.5,125.48
				c56.49,29.12,113.94,56.45,171.61,83.14c28.73,13.3,57.56,26.4,86.68,38.85c17.18,7.35,34.67,15.59,52.73,20.57
				c37.5,10.34,75.89,18.17,113.72,27.22c46.61,11.16,93.22,22.32,139.83,33.47c68.68,16.44,137.54,28.95,207.29,39.75
				c33.39,5.17,66.66,10.99,99.39,19.45c40.54,10.48,80.03,24.62,118.72,40.57c24.87,10.25,49.69,20.94,73.99,32.49
				c17.31,8.22,34.97,17.48,47.98,31.88c5.75,6.36,13.03,15.22,13.96,24c0.47,4.44,0,9.19,0,13.64c0,103.11,0,206.21,0,309.32
				c0,20.51,0,41.02,0,61.53c0,5.48,0,10.96,0,16.45c0,1.29,0.33,3.1,0,4.36c-0.06,0.24,0.12,0.66,0,0.88
				c0.64-1.16,0.26-0.68-1.6-1.2c-4.26-1.19-10.74,0.05-15.21,0.09c-8.11,0.06-16.23,0.13-24.34,0.19
				c-17.84,0.14-35.67,0.26-53.51,0.33c-35.66,0.13-71.41,0.45-107.05-1.14c-15.85-0.71-31.74,0.89-47.61,1.51
				c-20.71,0.81-41.43,1.3-62.15,1.62c-44.9,0.71-89.8,0.65-134.7,0.36c-85.24-0.55-170.47-1.96-255.72-1.96
				c-182.14,0-364.29-0.03-546.43-0.06c-168.87-0.02-337.74-0.02-506.61,0.02c-54.53,0.01-109.05,0.03-163.58,0.04
				C-0.43,1920-0.43,1923,1.5,1923L1.5,1923z"/>
		</g>
	</g>
	<path class="st9" d="M1141.38,1027h-826c0,0,0-45,54-40c0,0,29-99,121-63c0,0,11-89,116-68c0,0,40-99,127-55
		c17,16,41.78,29.8,41,103c0,0,70-52,121,32c0,0,47-23,76,26.98C971.38,962.98,1090.38,946,1141.38,1027z"/>
	<path class="st11" d="M-0.12,1480.25c198.74-193.2,306.8-194.01,427-207.5c215.53-24.19,318.29,73.24,581,21
		c115.53-22.97,205.59-63.68,328-119c202.51-91.52,279.06-150.58,435-184c63-13.5,121-5.5,149-4.5c0,52,0,135.27,0,181
		c0,178,2.83,594.69,1.12,753.75c-687,0-1241.76,0-1920,0C1,1899-0.12,1502.25-0.12,1480.25z"/>
	<g>
		<path class="st6" d="M392.09,229.94l19.1-26.78c11.66,12.15,29.76,22.32,52.58,22.32c19.34,0,28.77-8.93,28.77-18.35
			c0-29.26-95.23-9.18-95.23-71.42c0-27.53,23.81-50.34,62.74-50.34c26.29,0,48.11,7.94,64.48,23.06l-19.59,25.79
			c-13.39-12.4-31.25-18.1-48.11-18.1c-15.13,0-23.56,6.7-23.56,16.62c0,26.29,94.98,8.68,94.98,70.43
			c0,30.26-21.58,53.07-66.22,53.07C430.28,256.23,407.47,245.56,392.09,229.94z"/>
		<path class="st6" d="M543.62,193.23c0-33.98,23.81-62.74,63.24-62.74c39.68,0,63.49,28.77,63.49,62.74
			c0,34.22-23.81,62.99-63.49,62.99C567.43,256.23,543.62,227.46,543.62,193.23z M637.61,193.23c0-18.6-11.16-34.72-30.75-34.72
			s-30.5,16.12-30.5,34.72c0,18.85,10.91,34.97,30.5,34.97S637.61,212.08,637.61,193.23z"/>
		<path class="st6" d="M693.66,253.25V133.47h31.5v16.37c8.43-10.66,23.31-19.34,38.19-19.34v30.75c-2.23-0.5-5.21-0.74-8.68-0.74
			c-10.42,0-24.3,5.95-29.51,13.64v79.11H693.66z"/>
		<path class="st6" d="M854.85,253.25v-12.4c-8.18,9.67-22.32,15.38-37.94,15.38c-19.1,0-41.67-12.9-41.67-39.68
			c0-28.02,22.57-38.69,41.67-38.69c15.87,0,30.01,5.21,37.94,14.63v-16.12c0-12.15-10.42-20.09-26.29-20.09
			c-12.9,0-24.8,4.71-34.97,14.14l-11.9-21.08c14.63-12.9,33.48-18.85,52.33-18.85c27.28,0,52.33,10.91,52.33,45.38v77.38H854.85z
			 M854.85,224.48V209.6c-5.21-6.94-15.13-10.42-25.3-10.42c-12.4,0-22.57,6.45-22.57,18.1c0,11.16,10.17,17.61,22.57,17.61
			C839.72,234.9,849.64,231.43,854.85,224.48z"/>
		<path class="st6" d="M1080.03,253.25l-50.1-66.22l-12.9,15.38v50.84h-35.22V87.83h35.22v73.9l58.53-73.9h43.4l-65.72,77.62
			l70.18,87.79H1080.03z"/>
		<path class="st6" d="M1207.26,253.25v-12.4c-8.18,9.67-22.32,15.38-37.94,15.38c-19.1,0-41.66-12.9-41.66-39.68
			c0-28.02,22.57-38.69,41.66-38.69c15.87,0,30.01,5.21,37.94,14.63v-16.12c0-12.15-10.42-20.09-26.29-20.09
			c-12.9,0-24.8,4.71-34.97,14.14l-11.9-21.08c14.63-12.9,33.48-18.85,52.33-18.85c27.28,0,52.33,10.91,52.33,45.38v77.38H1207.26z
			 M1207.26,224.48V209.6c-5.21-6.94-15.13-10.42-25.3-10.42c-12.4,0-22.57,6.45-22.57,18.1c0,11.16,10.17,17.61,22.57,17.61
			C1192.13,234.9,1202.05,231.43,1207.26,224.48z"/>
		<path class="st6" d="M1350.85,253.25v-72.42c0-16.62-8.68-22.32-22.07-22.32c-12.4,0-22.07,6.94-27.28,14.14v80.6H1270V133.47
			h31.5v15.62c7.69-9.18,22.32-18.6,41.91-18.6c26.29,0,38.94,14.88,38.94,38.19v84.57H1350.85z"/>
		<path class="st6" d="M1411.11,284l14.14-22.82c9.67,10.66,22.32,14.88,37.45,14.88s32.98-6.7,32.98-30.26v-12.15
			c-9.42,11.9-22.32,18.85-36.95,18.85c-30.01,0-52.83-21.08-52.83-61.01c0-39.18,22.57-61.01,52.83-61.01
			c14.38,0,27.28,6.2,36.95,18.35v-15.38h31.74v111.6c0,45.63-35.22,56.79-64.73,56.79C1442.11,301.86,1426.24,297.15,1411.11,284z
			 M1495.68,210.84v-38.69c-5.21-7.94-16.62-13.64-27.03-13.64c-17.86,0-30.26,12.4-30.26,32.98c0,20.58,12.4,32.98,30.26,32.98
			C1479.07,224.48,1490.47,218.53,1495.68,210.84z"/>
	</g>
</g>
</svg>
